<?xml version="1.0" standalone="no"?>
<!DOCTYPE svg PUBLIC "-//W3C//DTD SVG 20010904//EN" "http://www.w3.org/TR/2001/REC-SVG-20010904/DTD/svg10.dtd">
<svg xmlns="http://www.w3.org/2000/svg" xmlns:sodipodi="http://sodipodi.sourceforge.net/DTD/sodipodi-0.dtd" width="353.28pt" height="480pt" viewBox="0 0 353.28 480">
<defs/>
<path id="shape0" transform="matrix(6.58278989199348 0 0 6.58372141886498 17.6489916407274 15.404631882861)" fill="#828282" fill-rule="evenodd" stroke="none" stroke-width="1" stroke-linecap="square" stroke-linejoin="bevel" d="M11.7436 20.8967C14.9348 23.6456 17.7476 21.097 19.0501 19.2523C17.1682 20.1653 14.7067 20.8224 12.5639 19.4041C10.4211 17.9858 10.2925 17.3671 7.52213 18.6408C9.51441 17.4412 9.92107 16.0093 11.1597 13.9567C12.3983 11.9041 12.8506 8.21611 18.1994 8.38776C23.5482 8.55941 25.7612 12.7419 20.7628 21.0165C15.7643 29.2913 1.71632 31.8858 0.0905323 49.4451C-1.53526 67.0043 19.1626 71.6596 27.8769 54.4531C36.5913 37.2463 33.4755 26.6697 31.6892 21.7738C57.9094 23.1906 46.4307 8.16 38.5933 11.207C44.2044 7.33238 42.5935 -0.375308 35.947 0.0142251C29.3006 0.403758 29.8146 8.42165 30.5198 11.6613C31.1962 10.8342 30.7575 2.1997 36.6107 3.7824C42.464 5.36512 32.148 15.2209 32.6478 15.6315C38.5553 10.8247 42.0675 13.8113 42.3036 15.7065C42.5395 17.6018 30.9232 20.3063 29.4178 20.2367C29.7192 20.8173 34.267 32.9442 27.3466 43.9971C20.4265 55.0502 11.9993 53.7111 12.8394 45.0364C13.6795 36.3616 26.6255 29.2023 28.5458 17.1765C30.4663 5.15069 22.2355 -0.3653 14.7934 4.01947C7.35137 8.40423 13.2207 14.6771 1.54099 20.5079C7.81811 21.7616 8.55244 18.1477 11.7436 20.8967Z" sodipodi:nodetypes="cczczzzzzcczczczczzzccz"/>
</svg>
